<svg width="494" height="494" viewBox="0 0 494 494" fill="none" xmlns="http://www.w3.org/2000/svg">
<path fill-rule="evenodd" clip-rule="evenodd" d="M494 334C494 409.425 494 447.137 470.569 470.569C447.137 494 409.425 494 334 494H160C84.5753 494 46.8629 494 23.4315 470.569C0 447.137 0 409.425 0 334V160C0 84.5753 0 46.8629 23.4315 23.4314C46.8629 -1.7643e-05 84.5753 -1.7643e-05 160 -1.7643e-05H334C409.425 -1.7643e-05 447.137 -1.7643e-05 470.569 23.4314C494 46.8629 494 84.5753 494 160V334Z" fill="black"/>
<path d="M141.087 154.3L141.124 154.271L141.164 154.245C144.459 152.15 149.369 152.656 151.604 156.129L264.728 313.014L264.741 313.032L264.754 313.051L277.835 333.067L277.998 333.317V333.614C277.998 337.663 274.58 341.018 270.325 341.018C267.895 341.018 266.034 340.086 264.523 338.304C264.501 338.285 264.463 338.254 264.398 338.204C264.384 338.192 264.367 338.18 264.349 338.166C264.274 338.108 264.174 338.032 264.078 337.951C263.847 337.759 263.551 337.479 263.331 337.076L153.107 183.81V333.614C153.107 337.635 149.725 341.018 145.704 341.018C141.683 341.018 138.3 337.635 138.3 333.614V162.436C137.451 159.414 138.409 156.382 141.087 154.3Z" fill="white" stroke="white" stroke-width="2"/>
<path d="M355.414 156.724L355.442 156.781C355.973 157.85 356.612 159.371 356.612 160.694V276.482V325.772V333.614C356.612 337.636 353.226 341.018 349.206 341.018C345.185 341.018 341.803 337.635 341.803 333.614V325.772V276.482V183.006L283.858 263.455C282.308 265.916 279.824 266.831 277.692 266.831H277.158C275.849 266.831 274.618 266.613 273.509 266.059C272.401 265.506 271.474 264.646 270.726 263.455L210.968 180.759L210.957 180.745L210.948 180.73L197.874 161.251L197.705 160.998V160.694C197.705 158.345 198.821 156.264 200.537 154.989C200.556 154.956 200.577 154.923 200.599 154.891C200.737 154.694 200.905 154.577 200.984 154.524C201.091 154.453 201.135 154.428 201.157 154.415C201.178 154.403 201.18 154.402 201.199 154.382L201.277 154.304L201.37 154.245C204.709 152.121 209.314 152.701 211.791 156.103L211.793 156.106L277.424 247.041L342.778 156.13C345.005 152.655 349.921 152.151 353.212 154.246L353.303 154.304L353.381 154.381L353.397 154.397C354.186 155.184 354.785 155.781 355.378 156.671L355.414 156.724Z" fill="white" stroke="white" stroke-width="2"/>
</svg>
